<svg width="620" height="620" viewBox="0 0 620 620" fill="none" xmlns="http://www.w3.org/2000/svg">
<rect width="620" height="620" fill="#C4C4C4"/>
<path d="M260.574 323.674C262.25 323.674 263.714 323.166 264.967 322.15C266.219 321.135 266.913 319.865 267.049 318.342H271.492C271.408 319.916 270.866 321.414 269.867 322.836C268.868 324.258 267.531 325.392 265.855 326.238C264.197 327.085 262.436 327.508 260.574 327.508C256.833 327.508 253.854 326.264 251.637 323.775C249.436 321.27 248.336 317.851 248.336 313.518V312.73C248.336 310.056 248.827 307.678 249.809 305.596C250.79 303.514 252.195 301.897 254.023 300.746C255.868 299.595 258.044 299.02 260.549 299.02C263.63 299.02 266.186 299.942 268.217 301.787C270.265 303.632 271.357 306.027 271.492 308.973H267.049C266.913 307.195 266.236 305.74 265.018 304.605C263.816 303.454 262.326 302.879 260.549 302.879C258.162 302.879 256.309 303.742 254.988 305.469C253.685 307.178 253.033 309.658 253.033 312.908V313.797C253.033 316.962 253.685 319.4 254.988 321.109C256.292 322.819 258.154 323.674 260.574 323.674ZM275.529 313.01C275.529 310.318 276.054 307.898 277.104 305.748C278.17 303.598 279.643 301.939 281.521 300.771C283.417 299.604 285.576 299.02 287.996 299.02C291.737 299.02 294.758 300.314 297.061 302.904C299.38 305.494 300.539 308.939 300.539 313.238V313.568C300.539 316.243 300.023 318.646 298.99 320.779C297.975 322.895 296.51 324.546 294.598 325.73C292.702 326.915 290.518 327.508 288.047 327.508C284.323 327.508 281.301 326.213 278.982 323.623C276.68 321.033 275.529 317.605 275.529 313.34V313.01ZM280.252 313.568C280.252 316.615 280.954 319.061 282.359 320.906C283.781 322.751 285.677 323.674 288.047 323.674C290.434 323.674 292.329 322.743 293.734 320.881C295.139 319.002 295.842 316.378 295.842 313.01C295.842 309.997 295.122 307.559 293.684 305.697C292.262 303.818 290.366 302.879 287.996 302.879C285.677 302.879 283.807 303.801 282.385 305.646C280.963 307.492 280.252 310.132 280.252 313.568ZM315.088 320.627L321.893 299.527H326.691L316.84 327H313.26L303.307 299.527H308.105L315.088 320.627ZM342.256 327.508C338.532 327.508 335.502 326.289 333.166 323.852C330.83 321.397 329.662 318.122 329.662 314.025V313.162C329.662 310.437 330.178 308.008 331.211 305.875C332.26 303.725 333.716 302.049 335.578 300.848C337.457 299.629 339.488 299.02 341.672 299.02C345.243 299.02 348.02 300.196 350 302.549C351.98 304.902 352.971 308.27 352.971 312.654V314.609H334.359C334.427 317.318 335.214 319.51 336.721 321.186C338.244 322.844 340.174 323.674 342.51 323.674C344.169 323.674 345.574 323.335 346.725 322.658C347.876 321.981 348.883 321.084 349.746 319.967L352.615 322.201C350.313 325.739 346.86 327.508 342.256 327.508ZM341.672 302.879C339.776 302.879 338.185 303.573 336.898 304.961C335.612 306.332 334.816 308.262 334.512 310.75H348.273V310.395C348.138 308.008 347.495 306.163 346.344 304.859C345.193 303.539 343.635 302.879 341.672 302.879ZM371.709 303.742C370.998 303.624 370.228 303.564 369.398 303.564C366.318 303.564 364.227 304.876 363.127 307.5V327H358.43V299.527H363L363.076 302.701C364.617 300.247 366.8 299.02 369.627 299.02C370.541 299.02 371.235 299.138 371.709 299.375V303.742Z" fill="black"/>
</svg>
