<svg width="48" height="48" viewBox="0 0 48 48" fill="none" xmlns="http://www.w3.org/2000/svg">
<path d="M20 10H9C7.89545 10 7 10.8954 7 12V31C7 32.1046 7.89545 33 9 33H20V31H9V12H20V10Z" fill="white"/>
<path d="M20 35.0854C19.8436 35.0301 19.6753 35 19.5 35H14.5C13.6716 35 13 35.6716 13 36.5C13 37.3284 13.6716 38 14.5 38H19.5C19.6753 38 19.8436 37.9699 20 37.9146V35.0854Z" fill="white"/>
<path fill-rule="evenodd" clip-rule="evenodd" d="M33 33C35.7614 33 38 30.7614 38 28C38 25.2386 35.7614 23 33 23C30.2386 23 28 25.2386 28 28C28 30.7614 30.2386 33 33 33ZM33 31C34.6569 31 36 29.6569 36 28C36 26.3431 34.6569 25 33 25C31.3431 25 30 26.3431 30 28C30 29.6569 31.3431 31 33 31Z" fill="white"/>
<path d="M33 19C34.1046 19 35 18.1046 35 17C35 15.8954 34.1046 15 33 15C31.8954 15 31 15.8954 31 17C31 18.1046 31.8954 19 33 19Z" fill="white"/>
<path fill-rule="evenodd" clip-rule="evenodd" d="M26 10C24.8954 10 24 10.8954 24 12V36C24 37.1046 24.8954 38 26 38H40C41.1046 38 42 37.1046 42 36V12C42 10.8954 41.1046 10 40 10H26ZM40 12H26V36H40V12Z" fill="white"/>
</svg>
