<svg width="48" height="48" viewBox="0 0 48 48" fill="none" xmlns="http://www.w3.org/2000/svg">
<path fill-rule="evenodd" clip-rule="evenodd" d="M16.8132 6.02068C14.1622 5.84175 11.0651 6.788 8.12388 10.3136C6.17861 12.6454 5.68999 15.1949 6.1725 17.8797C6.66336 20.6109 8.16638 23.4967 10.2517 26.3665C14.2943 31.9297 20.3042 37.1427 24.4391 40.683C28.491 37.1937 34.1822 32.0587 37.9906 26.5718C39.9984 23.679 41.4298 20.7618 41.8629 17.9964C42.2893 15.2739 41.7549 12.6808 39.7801 10.3136C36.8389 6.788 33.7417 5.84175 31.0907 6.02068C28.3767 6.20387 26.0066 7.57716 24.6456 8.88777L23.952 9.55573L23.2583 8.88777C21.8973 7.57716 19.5272 6.20387 16.8132 6.02068ZM23.952 6.83475C22.2784 5.47527 19.7925 4.21722 16.9479 4.02522C13.6156 3.8003 9.91176 5.04839 6.58812 9.03242C4.22306 11.8674 3.62875 15.0324 4.20404 18.2335C4.77099 21.3881 6.4665 24.5596 8.63378 27.5422C12.9558 33.49 19.3877 38.9932 23.4947 42.5072L24.44 43.3163L25.0903 42.7597C29.1524 39.2832 35.4518 33.7371 39.6336 27.7122C41.7249 24.6992 43.3397 21.4929 43.8388 18.3058C44.3447 15.0758 43.6974 11.8873 41.3158 9.03242C37.9922 5.04839 34.2883 3.8003 30.956 4.02522C28.1114 4.21722 25.6255 5.47527 23.952 6.83475Z" fill="white"/>
</svg>
