<svg width="48" height="48" viewBox="0 0 48 48" fill="none" xmlns="http://www.w3.org/2000/svg">
<path d="M28 8.5C28 10.433 26.433 12 24.5 12C22.567 12 21 10.433 21 8.5C21 6.56702 22.567 5 24.5 5C26.433 5 28 6.56702 28 8.5Z" fill="white"/>
<path d="M28 23.5C28 25.433 26.433 27 24.5 27C22.567 27 21 25.433 21 23.5C21 21.567 22.567 20 24.5 20C26.433 20 28 21.567 28 23.5Z" fill="white"/>
<path d="M24.5 42C26.433 42 28 40.433 28 38.5C28 36.567 26.433 35 24.5 35C22.567 35 21 36.567 21 38.5C21 40.433 22.567 42 24.5 42Z" fill="white"/>
</svg>
