<svg width="48" height="48" viewBox="0 0 48 48" fill="none" xmlns="http://www.w3.org/2000/svg">
<path fill-rule="evenodd" clip-rule="evenodd" d="M38 14.5C38 16.9853 35.9853 19 33.5 19C31.9679 19 30.6147 18.2344 29.802 17.0649L19.9479 22.8131C19.9822 23.0371 20 23.2664 20 23.5C20 24.0374 19.9058 24.5528 19.733 25.0306L30.0452 30.6164C30.8707 29.6285 32.1119 29 33.5 29C35.9853 29 38 31.0147 38 33.5C38 35.9853 35.9853 38 33.5 38C31.0147 38 29 35.9853 29 33.5C29 33.1199 29.0471 32.7509 29.1358 32.3984L18.6468 26.7168C17.8354 27.5107 16.7248 28 15.5 28C13.0147 28 11 25.9853 11 23.5C11 21.0147 13.0147 19 15.5 19C17.0321 19 18.3853 19.7656 19.198 20.9351L29.0521 15.1869C29.0178 14.9629 29 14.7336 29 14.5C29 12.0147 31.0147 10 33.5 10C35.9853 10 38 12.0147 38 14.5ZM36 14.5C36 15.8807 34.8807 17 33.5 17C32.1193 17 31 15.8807 31 14.5C31 13.1193 32.1193 12 33.5 12C34.8807 12 36 13.1193 36 14.5ZM17.5 21.9998C17.0439 21.3927 16.3178 21 15.5 21C14.1193 21 13 22.1193 13 23.5C13 24.8807 14.1193 26 15.5 26C16.3178 26 17.0439 25.6073 17.5 25.0002V21.9998ZM33.5 36C34.8807 36 36 34.8807 36 33.5C36 32.1193 34.8807 31 33.5 31C32.1193 31 31 32.1193 31 33.5C31 34.8807 32.1193 36 33.5 36Z" fill="white"/>
</svg>
